<?xml version="1.0" standalone="no"?>
<svg xmlns:xlink="http://www.w3.org/1999/xlink" id="wave" style="transform:rotate(0deg); transition: 0.3s" viewBox="0 0 1440 490" version="1.1" xmlns="http://www.w3.org/2000/svg"><defs><linearGradient id="sw-gradient-0" x1="0" x2="0" y1="1" y2="0"><stop stop-color="rgba(0, 44.253, 155.191, 1)" offset="0%"/><stop stop-color="rgba(90.169, 206.987, 243.986, 1)" offset="100%"/></linearGradient></defs><path style="transform:translate(0, 0px); opacity:1" fill="url(#sw-gradient-0)" d="M0,196L26.7,204.2C53.3,212,107,229,160,236.8C213.3,245,267,245,320,212.3C373.3,180,427,114,480,98C533.3,82,587,114,640,147C693.3,180,747,212,800,236.8C853.3,261,907,278,960,294C1013.3,310,1067,327,1120,351.2C1173.3,376,1227,408,1280,424.7C1333.3,441,1387,441,1440,392C1493.3,343,1547,245,1600,220.5C1653.3,196,1707,245,1760,285.8C1813.3,327,1867,359,1920,375.7C1973.3,392,2027,392,2080,375.7C2133.3,359,2187,327,2240,277.7C2293.3,229,2347,163,2400,114.3C2453.3,65,2507,33,2560,89.8C2613.3,147,2667,294,2720,343C2773.3,392,2827,343,2880,269.5C2933.3,196,2987,98,3040,114.3C3093.3,131,3147,261,3200,334.8C3253.3,408,3307,425,3360,367.5C3413.3,310,3467,180,3520,155.2C3573.3,131,3627,212,3680,228.7C3733.3,245,3787,196,3813,171.5L3840,147L3840,490L3813.3,490C3786.7,490,3733,490,3680,490C3626.7,490,3573,490,3520,490C3466.7,490,3413,490,3360,490C3306.7,490,3253,490,3200,490C3146.7,490,3093,490,3040,490C2986.7,490,2933,490,2880,490C2826.7,490,2773,490,2720,490C2666.7,490,2613,490,2560,490C2506.7,490,2453,490,2400,490C2346.7,490,2293,490,2240,490C2186.7,490,2133,490,2080,490C2026.7,490,1973,490,1920,490C1866.7,490,1813,490,1760,490C1706.7,490,1653,490,1600,490C1546.7,490,1493,490,1440,490C1386.7,490,1333,490,1280,490C1226.7,490,1173,490,1120,490C1066.7,490,1013,490,960,490C906.7,490,853,490,800,490C746.7,490,693,490,640,490C586.7,490,533,490,480,490C426.7,490,373,490,320,490C266.7,490,213,490,160,490C106.7,490,53,490,27,490L0,490Z"/><defs><linearGradient id="sw-gradient-1" x1="0" x2="0" y1="1" y2="0"><stop stop-color="rgba(108.53, 176.271, 230.325, 1)" offset="0%"/><stop stop-color="rgba(32.771, 121.534, 228.049, 1)" offset="100%"/></linearGradient></defs><path style="transform:translate(0, 50px); opacity:0.9" fill="url(#sw-gradient-1)" d="M0,294L26.7,245C53.3,196,107,98,160,114.3C213.3,131,267,261,320,261.3C373.3,261,427,131,480,138.8C533.3,147,587,294,640,351.2C693.3,408,747,376,800,343C853.3,310,907,278,960,269.5C1013.3,261,1067,278,1120,294C1173.3,310,1227,327,1280,302.2C1333.3,278,1387,212,1440,196C1493.3,180,1547,212,1600,187.8C1653.3,163,1707,82,1760,57.2C1813.3,33,1867,65,1920,106.2C1973.3,147,2027,196,2080,228.7C2133.3,261,2187,278,2240,253.2C2293.3,229,2347,163,2400,171.5C2453.3,180,2507,261,2560,269.5C2613.3,278,2667,212,2720,155.2C2773.3,98,2827,49,2880,24.5C2933.3,0,2987,0,3040,8.2C3093.3,16,3147,33,3200,81.7C3253.3,131,3307,212,3360,220.5C3413.3,229,3467,163,3520,187.8C3573.3,212,3627,327,3680,326.7C3733.3,327,3787,212,3813,155.2L3840,98L3840,490L3813.3,490C3786.7,490,3733,490,3680,490C3626.7,490,3573,490,3520,490C3466.7,490,3413,490,3360,490C3306.7,490,3253,490,3200,490C3146.7,490,3093,490,3040,490C2986.7,490,2933,490,2880,490C2826.7,490,2773,490,2720,490C2666.7,490,2613,490,2560,490C2506.7,490,2453,490,2400,490C2346.7,490,2293,490,2240,490C2186.7,490,2133,490,2080,490C2026.7,490,1973,490,1920,490C1866.7,490,1813,490,1760,490C1706.7,490,1653,490,1600,490C1546.7,490,1493,490,1440,490C1386.7,490,1333,490,1280,490C1226.7,490,1173,490,1120,490C1066.7,490,1013,490,960,490C906.7,490,853,490,800,490C746.7,490,693,490,640,490C586.7,490,533,490,480,490C426.7,490,373,490,320,490C266.7,490,213,490,160,490C106.7,490,53,490,27,490L0,490Z"/></svg>