<?xml version="1.0" standalone="no"?>
<svg xmlns:xlink="http://www.w3.org/1999/xlink" id="wave" style="transform:rotate(0deg); transition: 0.3s" viewBox="0 0 1440 490" version="1.1" xmlns="http://www.w3.org/2000/svg"><defs><linearGradient id="sw-gradient-0" x1="0" x2="0" y1="1" y2="0"><stop stop-color="rgba(42.544, 133.061, 173.406, 1)" offset="0%"/><stop stop-color="rgba(59.682, 161.698, 255, 1)" offset="100%"/></linearGradient></defs><path style="transform:translate(0, 0px); opacity:1" fill="url(#sw-gradient-0)" d="M0,392L48,351.2C96,310,192,229,288,220.5C384,212,480,278,576,326.7C672,376,768,408,864,400.2C960,392,1056,343,1152,318.5C1248,294,1344,294,1440,294C1536,294,1632,294,1728,269.5C1824,245,1920,196,2016,196C2112,196,2208,245,2304,253.2C2400,261,2496,229,2592,212.3C2688,196,2784,196,2880,171.5C2976,147,3072,98,3168,114.3C3264,131,3360,212,3456,269.5C3552,327,3648,359,3744,334.8C3840,310,3936,229,4032,204.2C4128,180,4224,212,4320,204.2C4416,196,4512,147,4608,163.3C4704,180,4800,261,4896,294C4992,327,5088,310,5184,277.7C5280,245,5376,196,5472,187.8C5568,180,5664,212,5760,228.7C5856,245,5952,245,6048,245C6144,245,6240,245,6336,261.3C6432,278,6528,310,6624,302.2C6720,294,6816,245,6864,220.5L6912,196L6912,490L6864,490C6816,490,6720,490,6624,490C6528,490,6432,490,6336,490C6240,490,6144,490,6048,490C5952,490,5856,490,5760,490C5664,490,5568,490,5472,490C5376,490,5280,490,5184,490C5088,490,4992,490,4896,490C4800,490,4704,490,4608,490C4512,490,4416,490,4320,490C4224,490,4128,490,4032,490C3936,490,3840,490,3744,490C3648,490,3552,490,3456,490C3360,490,3264,490,3168,490C3072,490,2976,490,2880,490C2784,490,2688,490,2592,490C2496,490,2400,490,2304,490C2208,490,2112,490,2016,490C1920,490,1824,490,1728,490C1632,490,1536,490,1440,490C1344,490,1248,490,1152,490C1056,490,960,490,864,490C768,490,672,490,576,490C480,490,384,490,288,490C192,490,96,490,48,490L0,490Z"/></svg>